<svg width="46" height="46" viewBox="0 0 46 46" fill="none" xmlns="http://www.w3.org/2000/svg">
<rect width="46" height="46" rx="23" fill="#FFEC00"/>
<path d="M23 23C23.55 23 24.021 22.804 24.413 22.412C24.805 22.02 25.0007 21.5493 25 21C25 20.45 24.804 19.979 24.412 19.587C24.02 19.195 23.5493 18.9993 23 19C22.45 19 21.979 19.196 21.587 19.588C21.195 19.98 20.9993 20.4507 21 21C21 21.55 21.196 22.021 21.588 22.413C21.98 22.805 22.4507 23.0007 23 23ZM23 33C20.3167 30.7167 18.3127 28.596 16.988 26.638C15.6633 24.68 15.0007 22.8673 15 21.2C15 18.7 15.8043 16.7083 17.413 15.225C19.0217 13.7417 20.884 13 23 13C25.1167 13 26.9793 13.7417 28.588 15.225C30.1967 16.7083 31.0007 18.7 31 21.2C31 22.8667 30.3373 24.6793 29.012 26.638C27.6867 28.5967 25.6827 30.7173 23 33Z" fill="#212121"/>
</svg>
