<svg width="21" height="21" viewBox="0 0 21 21" fill="none" xmlns="http://www.w3.org/2000/svg">
<path d="M6.72 0.92041H15.12C18.32 0.92041 20.92 3.52041 20.92 6.72041V15.1204C20.92 16.6587 20.3089 18.1339 19.2212 19.2216C18.1335 20.3093 16.6583 20.9204 15.12 20.9204H6.72C3.52 20.9204 0.919998 18.3204 0.919998 15.1204V6.72041C0.919998 5.18215 1.53107 3.7069 2.61878 2.61919C3.70649 1.53148 5.18174 0.92041 6.72 0.92041ZM6.52 2.92041C5.56522 2.92041 4.64954 3.29969 3.97441 3.97483C3.29928 4.64996 2.92 5.56563 2.92 6.52041V15.3204C2.92 17.3104 4.53 18.9204 6.52 18.9204H15.32C16.2748 18.9204 17.1905 18.5411 17.8656 17.866C18.5407 17.1909 18.92 16.2752 18.92 15.3204V6.52041C18.92 4.53041 17.31 2.92041 15.32 2.92041H6.52ZM16.17 4.42041C16.5015 4.42041 16.8195 4.55211 17.0539 4.78653C17.2883 5.02095 17.42 5.33889 17.42 5.67041C17.42 6.00193 17.2883 6.31987 17.0539 6.55429C16.8195 6.78871 16.5015 6.92041 16.17 6.92041C15.8385 6.92041 15.5205 6.78871 15.2861 6.55429C15.0517 6.31987 14.92 6.00193 14.92 5.67041C14.92 5.33889 15.0517 5.02095 15.2861 4.78653C15.5205 4.55211 15.8385 4.42041 16.17 4.42041ZM10.92 5.92041C12.2461 5.92041 13.5178 6.44719 14.4555 7.38488C15.3932 8.32256 15.92 9.59433 15.92 10.9204C15.92 12.2465 15.3932 13.5183 14.4555 14.4559C13.5178 15.3936 12.2461 15.9204 10.92 15.9204C9.59391 15.9204 8.32215 15.3936 7.38446 14.4559C6.44678 13.5183 5.92 12.2465 5.92 10.9204C5.92 9.59433 6.44678 8.32256 7.38446 7.38488C8.32215 6.44719 9.59391 5.92041 10.92 5.92041ZM10.92 7.92041C10.1243 7.92041 9.36129 8.23648 8.79868 8.79909C8.23607 9.3617 7.92 10.1248 7.92 10.9204C7.92 11.7161 8.23607 12.4791 8.79868 13.0417C9.36129 13.6043 10.1243 13.9204 10.92 13.9204C11.7156 13.9204 12.4787 13.6043 13.0413 13.0417C13.6039 12.4791 13.92 11.7161 13.92 10.9204C13.92 10.1248 13.6039 9.3617 13.0413 8.79909C12.4787 8.23648 11.7156 7.92041 10.92 7.92041Z" fill="#FFEC00"/>
</svg>
