<svg width="20" height="20" viewBox="0 0 20 20" fill="none" xmlns="http://www.w3.org/2000/svg">
<path fill-rule="evenodd" clip-rule="evenodd" d="M15 5.83325C15 8.59468 12.7614 10.8333 10 10.8333C7.2386 10.8333 5.00002 8.59468 5.00002 5.83325C5.00002 3.07183 7.2386 0.833252 10 0.833252C12.7614 0.833252 15 3.07183 15 5.83325ZM13.3334 5.83325C13.3334 7.6742 11.841 9.16658 10 9.16658C8.15907 9.16658 6.66669 7.6742 6.66669 5.83325C6.66669 3.9923 8.15907 2.49992 10 2.49992C11.841 2.49992 13.3334 3.9923 13.3334 5.83325Z" fill="#797979"/>
<path fill-rule="evenodd" clip-rule="evenodd" d="M10.0001 11.6666C7.55414 11.6666 5.7906 12.1739 4.52556 12.9347C3.25546 13.6985 2.54208 14.6853 2.14813 15.5483C1.81606 16.2758 1.9672 17.0172 2.40839 17.5454C2.82895 18.0489 3.48285 18.3333 4.16673 18.3333H15.8334C16.5172 18.3333 17.1711 18.0489 17.5917 17.5454C18.0329 17.0172 18.184 16.2759 17.852 15.5484C17.4581 14.6853 16.7447 13.6985 15.4746 12.9347C14.2096 12.174 12.446 11.6666 10.0001 11.6666ZM3.66431 16.2404C3.93777 15.6413 4.4401 14.9309 5.38448 14.363C6.3339 13.792 7.78359 13.3333 10.0001 13.3333C12.2166 13.3333 13.6663 13.7921 14.6157 14.363C15.56 14.9309 16.0623 15.6413 16.3358 16.2404C16.3681 16.3112 16.3667 16.3537 16.3634 16.3754C16.3597 16.4002 16.3475 16.4351 16.3126 16.4769C16.2374 16.5669 16.07 16.6666 15.8334 16.6666H4.16673C3.93012 16.6666 3.76266 16.5669 3.68752 16.4769C3.65254 16.4351 3.64037 16.4002 3.63667 16.3754C3.63343 16.3537 3.63202 16.3112 3.66431 16.2404Z" fill="#797979"/>
</svg>
