<svg width="21" height="24" viewBox="0 0 21 24" fill="none" xmlns="http://www.w3.org/2000/svg">
<path d="M17.5594 11.7529C17.2999 11.4401 17.2999 10.9868 17.5594 10.674L20.3578 7.30106C20.5669 7.04905 20.6115 6.69887 20.4723 6.40244C20.3331 6.10601 20.0351 5.91675 19.7076 5.91675H14.9035V10.9986C14.9035 12.3835 13.7768 13.5103 12.3919 13.5103H8.46729V15.6654C8.46729 16.132 8.84555 16.5102 9.31216 16.5102H19.7076C20.0351 16.5102 20.3331 16.321 20.4723 16.0245C20.6116 15.7281 20.5669 15.3779 20.3578 15.1259L17.5594 11.7529Z" fill="#212121"/>
<path d="M13.2367 10.9987V2.09493C13.2367 1.62832 12.8584 1.25006 12.3918 1.25006H2.9477C2.9477 0.559692 2.38801 0 1.69764 0C1.00728 0 0.447586 0.559692 0.447586 1.25006C0.447586 1.90234 0.447586 22.4102 0.447586 22.7499C0.447586 23.4403 1.00728 24 1.69764 24C2.38801 24 2.9477 23.4403 2.9477 22.7499C2.9477 22.1713 2.9477 12.2406 2.9477 11.8435H12.3918C12.8584 11.8435 13.2367 11.4653 13.2367 10.9987Z" fill="#212121"/>
</svg>
