<svg width="19" height="24" viewBox="0 0 19 24" fill="none" xmlns="http://www.w3.org/2000/svg">
<path d="M9.50021 19.6003C6.79296 19.6003 4.24106 18.5924 2.27144 16.7552C1.71906 17.997 1.40747 19.338 1.40747 20.6478C1.40747 25.1174 17.5929 25.1174 17.5929 20.6478C17.5929 19.3381 17.2814 17.997 16.729 16.7552C14.7594 18.5925 12.2075 19.6003 9.50021 19.6003Z" fill="black"/>
<path d="M9.50035 11.8466C11.0745 11.8466 12.355 10.5659 12.355 8.99189C12.355 7.41785 11.0744 6.13721 9.50035 6.13721C7.92631 6.13721 6.64575 7.41785 6.64575 8.99189C6.64575 10.5659 7.92639 11.8466 9.50035 11.8466Z" fill="black"/>
<path d="M9.50029 17.9837C14.4664 17.9837 18.4922 13.9579 18.4922 8.99187C18.4922 4.0258 14.4664 0 9.50029 0C4.53414 0 0.508423 4.0258 0.508423 8.99187C0.508423 13.958 4.53422 17.9837 9.50029 17.9837ZM9.50029 3.71235C12.4115 3.71235 14.7798 6.08077 14.7798 8.99187C14.7798 11.903 12.4114 14.2714 9.50029 14.2714C6.58919 14.2714 4.22085 11.903 4.22085 8.99187C4.22085 6.08077 6.58919 3.71235 9.50029 3.71235Z" fill="black"/>
</svg>
