<svg width="25" height="24" viewBox="0 0 25 24" fill="none" xmlns="http://www.w3.org/2000/svg">
<path d="M7.34831 5.82445V0.800666C7.34831 0.358475 6.98984 0 6.54765 0H1.52386C1.08167 0 0.72319 0.358475 0.72319 0.800666V5.82445C0.72319 6.26665 1.08167 6.62512 1.52386 6.62512H6.54765C6.98984 6.62512 7.34831 6.26665 7.34831 5.82445Z" fill="#212121"/>
<path d="M12.4431 1.22746C14.1107 1.22746 15.5003 2.41574 15.8126 3.99164V0.800666C15.8126 0.358475 15.4541 0 15.0119 0H9.98811C9.54591 0 9.18744 0.358475 9.18744 0.800666V3.56635C9.64519 2.20693 10.9294 1.22746 12.4431 1.22746Z" fill="#212121"/>
<path d="M23.4761 0H18.4523C18.0101 0 17.6516 0.358475 17.6516 0.800666V5.82445C17.6516 6.26665 18.0101 6.62512 18.4523 6.62512H23.4761C23.9183 6.62512 24.2767 6.26665 24.2767 5.82445V0.800666C24.2767 0.358475 23.9183 0 23.4761 0Z" fill="#212121"/>
<path d="M21.6631 11.8395C21.6631 11.1514 21.1053 10.5936 20.4172 10.5936C20.0659 10.5936 19.7492 10.7395 19.5228 10.9732C19.4863 10.1781 18.8319 9.54699 18.0313 9.54699C18.0263 9.54699 18.0211 9.54707 18.016 9.54707C17.4612 9.5526 16.981 9.86045 16.7275 10.3118C16.7098 9.49321 16.0363 8.84923 15.234 8.84923C14.6794 8.84923 14.1964 9.15195 13.9383 9.60046V4.66291C13.9383 3.83721 13.2688 3.16772 12.4431 3.16772C11.6174 3.16772 10.9479 3.83721 10.9479 4.66291V13.888L8.54971 10.6506C8.05816 9.98705 7.12181 9.84773 6.45841 10.3392C5.79492 10.8308 5.65545 11.767 6.147 12.4305L12.4431 20.9299V23.2038C12.4431 23.6435 12.7996 24 13.2393 24C13.405 24 20.9947 24 20.8503 24C21.29 24 21.6464 23.6435 21.6464 23.2038C21.6464 22.7183 21.6631 12.325 21.6631 11.8395Z" fill="#212121"/>
</svg>
