<svg width="25" height="24" viewBox="0 0 25 24" fill="none" xmlns="http://www.w3.org/2000/svg">
<path d="M13.7784 11.5046C14.0549 11.3632 14.3629 11.2885 14.6825 11.2885C15.212 11.2885 15.7099 11.4941 16.0852 11.8674L16.8932 11.0595C18.8926 11.7604 21.205 11.3117 22.8034 9.71343C24.1483 8.36855 24.6787 6.51817 24.3956 4.77398C24.3644 4.5819 24.2284 4.42348 24.0432 4.36371C23.8581 4.30386 23.6549 4.35249 23.5174 4.49012L22.3177 5.68976C21.3408 6.66669 19.7568 6.66669 18.7798 5.68976C17.8028 4.71282 17.8028 3.12878 18.7798 2.15185L19.9795 0.952212C20.1171 0.814579 20.1661 0.611365 20.1062 0.426163C20.0463 0.24088 19.8877 0.105213 19.6955 0.0740182C17.9514 -0.209106 16.1009 0.321281 14.7561 1.66616C13.134 3.28828 12.6975 5.64563 13.4435 7.66508L11.6912 9.41737L13.7784 11.5046Z" fill="#212121"/>
<path d="M10.5852 14.68L8.50685 12.6016L1.23919 19.8691C0.29419 20.8141 0.29419 22.3463 1.23919 23.2913C2.1842 24.2363 3.71633 24.2363 4.66133 23.2913L10.9265 17.0262C10.2946 16.3909 10.1807 15.4318 10.5852 14.68Z" fill="#212121"/>
<path d="M15.2207 12.7396C15.0721 12.591 14.8772 12.5166 14.6824 12.5166C14.4877 12.5166 14.2928 12.591 14.1442 12.7396L13.7103 13.1734L5.98197 5.44506L6.34321 5.08383C6.67234 4.75477 6.63149 4.20891 6.25634 3.93267L3.10316 1.61044C2.80014 1.38733 2.37963 1.41901 2.11353 1.68511L0.774709 3.02401C0.508615 3.29011 0.476929 3.7107 0.700039 4.01364L3.02218 7.16682C3.29843 7.54189 3.84397 7.58315 4.17335 7.25369L4.53458 6.89237L12.2629 14.6207L11.7986 15.0851C11.5013 15.3824 11.5013 15.8643 11.7986 16.1616L18.9282 23.2912C19.8732 24.2362 21.4053 24.2362 22.3503 23.2912C23.2953 22.3462 23.2953 20.8141 22.3503 19.8691L15.2207 12.7396Z" fill="#212121"/>
</svg>
