<svg width="25" height="24" viewBox="0 0 25 24" fill="none" xmlns="http://www.w3.org/2000/svg">
<path d="M1.50839 5.05509H6.84951C7.26062 5.05509 7.59383 4.72188 7.59383 4.31077V1.43157C7.59383 1.02047 7.26062 0.687256 6.84951 0.687256H1.50839C1.09728 0.687256 0.764069 1.02047 0.764069 1.43157V4.31077C0.764069 4.72188 1.09736 5.05509 1.50839 5.05509Z" fill="#212121"/>
<path d="M9.9616 5.05509H15.3027C15.7138 5.05509 16.047 4.72188 16.047 4.31077V1.43157C16.047 1.02047 15.7138 0.687256 15.3027 0.687256H9.9616C9.55057 0.687256 9.21729 1.02047 9.21729 1.43157V4.31077C9.21729 4.72188 9.55049 5.05509 9.9616 5.05509Z" fill="#212121"/>
<path d="M23.7556 0.687256H18.4145C18.0034 0.687256 17.6702 1.02047 17.6702 1.43157V4.31077C17.6702 4.72188 18.0034 5.05509 18.4145 5.05509H23.7556C24.1667 5.05509 24.4999 4.72188 24.4999 4.31077V1.43157C24.5 1.02047 24.1667 0.687256 23.7556 0.687256Z" fill="#212121"/>
<path d="M1.57884 13.8178H1.58244C2.18642 13.8178 2.75356 14.0677 3.16051 14.4881C3.0931 14.0574 2.98517 13.5738 2.82409 13.0295C2.74075 12.748 2.71753 12.4589 2.74716 12.1774H1.50839C1.09728 12.1774 0.764069 12.5106 0.764069 12.9217V13.9778C1.01634 13.8762 1.28926 13.8196 1.57139 13.8178H1.57884Z" fill="#212121"/>
<path d="M15.3027 16.5453C15.7138 16.5453 16.047 16.2121 16.047 15.801V12.9218C16.047 12.5107 15.7137 12.1775 15.3027 12.1775H13.3208C14.2394 13.6283 14.5584 15.2067 14.6209 16.5453H15.3027Z" fill="#212121"/>
<path d="M23.7556 12.1775H18.4145C18.0034 12.1775 17.6702 12.5107 17.6702 12.9218V15.801C17.6702 16.2121 18.0034 16.5453 18.4145 16.5453H23.7556C24.1667 16.5453 24.4999 16.2121 24.4999 15.801V12.9218C24.5 12.5107 24.1667 12.1775 23.7556 12.1775Z" fill="#212121"/>
<path d="M5.80798 6.43237C5.39687 6.43237 5.06366 6.76566 5.06366 7.17669V10.0559C5.06366 10.1115 5.07022 10.1654 5.08175 10.2175C5.36052 10.2373 5.63641 10.3101 5.88756 10.4321C6.12309 10.5466 6.35119 10.6695 6.57223 10.8003H8.80567C9.01062 10.5535 9.27025 10.3491 9.57424 10.2087C9.86478 10.0745 10.1744 10.0065 10.4943 10.0065C10.9638 10.0065 11.4164 10.1561 11.7912 10.431C11.8557 10.3207 11.8933 10.1929 11.8933 10.0559V7.17669C11.8933 6.76558 11.5601 6.43237 11.149 6.43237H5.80798Z" fill="#212121"/>
<path d="M13.3706 7.17669V10.0559C13.3706 10.467 13.7038 10.8002 14.115 10.8002H19.4561C19.8672 10.8002 20.2004 10.4669 20.2004 10.0559V7.17669C20.2004 6.76558 19.8672 6.43237 19.4561 6.43237H14.115C13.7038 6.43237 13.3706 6.76558 13.3706 7.17669Z" fill="#212121"/>
<path d="M3.58675 10.0559V7.17669C3.58675 6.76558 3.25354 6.43237 2.84243 6.43237H0.764069V10.8002H2.84235C3.25346 10.8002 3.58675 10.467 3.58675 10.0559Z" fill="#212121"/>
<path d="M21.6773 7.17669V10.0559C21.6773 10.467 22.0106 10.8002 22.4217 10.8002H24.5V6.43237H22.4217C22.0106 6.43237 21.6773 6.76558 21.6773 7.17669Z" fill="#212121"/>
<path d="M19.4561 17.9225H14.6016C14.5434 18.7156 14.4195 19.3161 14.3549 19.5885C14.255 20.0096 13.9985 20.8848 13.4307 21.839C13.5444 22.1044 13.8079 22.2903 14.115 22.2903H19.4561C19.8672 22.2903 20.2004 21.9571 20.2004 21.546V18.6668C20.2004 18.2558 19.8672 17.9225 19.4561 17.9225Z" fill="#212121"/>
<path d="M21.6773 18.6668V21.546C21.6773 21.957 22.0106 22.2903 22.4217 22.2903H24.5V17.9225H22.4217C22.0106 17.9225 21.6773 18.2557 21.6773 18.6668Z" fill="#212121"/>
<path d="M13.0309 16.8012C13.0204 16.4264 12.987 16.0298 12.9203 15.6229C12.9055 15.5325 12.889 15.4415 12.8708 15.3502C12.6248 14.1176 12.0586 12.8161 10.8929 11.7611C10.7815 11.6602 10.6388 11.6075 10.4944 11.6075C10.4101 11.6075 10.3252 11.6255 10.2456 11.6622C10.2186 11.6747 10.1928 11.689 10.1685 11.7051C10.1197 11.7371 10.0765 11.7757 10.0397 11.8195C10.003 11.8633 9.97272 11.9123 9.94991 11.9647C9.92709 12.0171 9.9118 12.0731 9.90491 12.131C9.90147 12.16 9.90011 12.1893 9.90107 12.2191C9.91636 12.7255 9.89571 13.1758 9.84727 13.5785C9.84038 13.636 9.83286 13.6925 9.82485 13.7482C9.76073 14.1931 9.66201 14.5775 9.54096 14.914C9.46178 15.1342 9.26075 15.2873 9.02754 15.3051C9.01232 15.3062 8.99719 15.3069 8.98214 15.3069C8.7659 15.3069 8.56519 15.1887 8.46071 14.9966C8.0468 14.2353 7.49126 13.5061 6.74566 12.8783C6.3729 12.5643 5.95259 12.2757 5.47863 12.0211C5.38384 11.9701 5.28689 11.9206 5.18786 11.8724C5.10539 11.8323 5.01669 11.8127 4.92854 11.8127C4.7906 11.8127 4.65393 11.8607 4.54441 11.9536C4.365 12.1058 4.29246 12.3495 4.35923 12.5751C4.38149 12.6502 4.40287 12.7245 4.42344 12.7981C4.8966 14.4898 4.92974 15.7583 4.7629 16.7576C4.75561 16.801 4.74801 16.844 4.74 16.8864C4.68404 17.1835 4.61054 17.4563 4.52624 17.7091C4.46083 17.9053 4.29791 18.0533 4.09632 18.0999C4.05196 18.1101 4.00721 18.1151 3.9627 18.1151C3.8049 18.1151 3.6515 18.0522 3.53862 17.9368C3.05626 17.4434 2.57245 16.7571 2.12252 15.7671C2.02612 15.5551 1.81477 15.4191 1.58211 15.4191C1.58083 15.4191 1.57955 15.4191 1.57819 15.4191C1.34401 15.4206 1.13273 15.5597 1.0385 15.7741C0.694406 16.5571 0.535006 17.2969 0.504903 17.9808C0.5009 18.072 0.499139 18.1622 0.499619 18.2513C0.501221 18.5634 0.529242 18.863 0.578318 19.1488C0.585284 19.1896 0.592729 19.2301 0.600575 19.2704C0.741641 19.995 1.01561 20.6271 1.32664 21.1448C1.37852 21.2311 1.43136 21.3142 1.48484 21.394C1.80556 21.8729 2.14742 22.2339 2.41458 22.455C2.86003 22.8236 3.31125 23.1019 3.74357 23.3128C3.79337 22.4345 4.00193 21.4622 4.54617 20.5151C4.6312 21.275 4.89748 21.8805 5.24406 22.3813C5.78478 21.347 7.17383 19.9239 6.70683 17.7558C7.97154 18.8779 8.49666 20.314 8.75333 21.433C9.3288 20.6595 10.1294 19.8736 11.2579 19.3666C10.6223 20.4882 10.6605 21.5569 10.8447 22.481C11.3119 22.0736 11.677 21.6213 11.9597 21.1765C12.0652 21.0106 12.1592 20.8458 12.243 20.6847C12.2933 20.588 12.3398 20.4928 12.3829 20.3994C12.5981 19.9327 12.7263 19.5148 12.7964 19.2191C12.8004 19.2024 12.8044 19.1849 12.8086 19.1668C12.8169 19.1306 12.8254 19.0917 12.8341 19.0502C12.8472 18.988 12.8606 18.9201 12.8742 18.8469C12.9012 18.7004 12.9281 18.5327 12.952 18.3472C12.96 18.2853 12.9676 18.2215 12.9748 18.1558C12.982 18.0902 12.9887 18.0226 12.9949 17.9533C13.0011 17.8841 13.0067 17.8132 13.0116 17.7405C13.0288 17.4865 13.0377 17.213 13.0333 16.9255C13.0329 16.8842 13.032 16.8428 13.0309 16.8012Z" fill="#212121"/>
</svg>
