<svg width="25" height="24" viewBox="0 0 25 24" fill="none" xmlns="http://www.w3.org/2000/svg">
<path d="M23.705 7.52354L13.1362 0.206902C12.7368 -0.0695078 12.2079 -0.0689391 11.8092 0.208445L1.29332 7.52476C0.96483 7.75331 0.822807 8.16866 0.942568 8.55045C1.06233 8.93224 1.41617 9.19207 1.81632 9.19207H2.8442V22.8362C2.8442 23.4789 3.36517 23.9999 4.00785 23.9999H20.9365C21.5792 23.9999 22.1002 23.4789 22.1002 22.8362V9.19207H23.1838C23.5843 9.19207 23.9384 8.93175 24.0578 8.54939C24.1772 8.16712 24.0343 7.75153 23.705 7.52354ZM16.8784 19.6847C16.8784 20.0796 16.5583 20.3997 16.1634 20.3997H8.83657C8.44169 20.3997 8.12165 20.0796 8.12165 19.6847V13.784C8.12165 13.3892 8.44178 13.0691 8.83657 13.0691H9.22388V11.6454C9.22388 9.83898 10.6935 8.36926 12.4999 8.36926C14.3063 8.36926 15.776 9.83898 15.776 11.6454V13.0691H16.1634C16.5583 13.0691 16.8784 13.3892 16.8784 13.784V19.6847Z" fill="#212121"/>
<path d="M12.5001 10.1428C11.6716 10.1428 10.9975 10.8169 10.9975 11.6454V13.0026H14.0027V11.6454C14.0028 10.8169 13.3286 10.1428 12.5001 10.1428Z" fill="#212121"/>
<path d="M12.5001 14.7983C11.8797 14.7983 11.3769 15.3012 11.3769 15.9216C11.3769 16.2795 11.5448 16.5975 11.8055 16.8032V17.9759C11.8055 18.3596 12.1165 18.6705 12.5001 18.6705C12.8837 18.6705 13.1947 18.3596 13.1947 17.9759V16.8032C13.4555 16.5974 13.6234 16.2794 13.6234 15.9215C13.6234 15.3012 13.1205 14.7983 12.5001 14.7983Z" fill="#212121"/>
</svg>
