<svg width="21" height="24" viewBox="0 0 21 24" fill="none" xmlns="http://www.w3.org/2000/svg">
<path d="M16.3626 20.2779V15.9046C16.3626 12.667 13.738 10.0425 10.5004 10.0425C7.26285 10.0425 4.63822 12.667 4.63822 15.9046V20.2779C3.61038 20.2779 2.77719 21.1111 2.77719 22.139C2.77719 23.1668 3.61038 24 4.63822 24H16.3626C17.3904 24 18.2236 23.1668 18.2236 22.139C18.2236 21.1111 17.3904 20.2779 16.3626 20.2779ZM6.15621 15.9793C6.15621 14.8878 6.5627 13.8443 7.30074 13.041C7.61392 12.7 8.14423 12.6775 8.48517 12.9909C8.82611 13.3041 8.84857 13.8344 8.5353 14.1753C8.08237 14.6684 7.8328 15.309 7.8328 15.9793V18.4002C7.8328 18.8631 7.45741 19.2385 6.99451 19.2385C6.5316 19.2385 6.15621 18.8631 6.15621 18.4002V15.9793Z" fill="black"/>
<path d="M10.5002 7.28884C11.1946 7.28884 11.7576 6.72584 11.7576 6.03139V1.25745C11.7576 0.563002 11.1946 0 10.5002 0C9.80574 0 9.24274 0.563002 9.24274 1.25745V6.03139C9.24274 6.72584 9.80574 7.28884 10.5002 7.28884Z" fill="black"/>
<path d="M4.86599 9.93864C5.18781 9.93864 5.50963 9.81582 5.75509 9.57029C6.24616 9.0793 6.24616 8.28308 5.75509 7.792L2.37942 4.41634C1.88843 3.92535 1.09222 3.92535 0.601141 4.41634C0.110065 4.90742 0.110065 5.70363 0.601141 6.19462L3.97689 9.57037C4.22234 9.81582 4.54416 9.93864 4.86599 9.93864Z" fill="black"/>
<path d="M20.3995 4.4164C19.9085 3.92524 19.1122 3.92541 18.6212 4.4164L15.2455 7.79223C14.7544 8.28331 14.7545 9.07944 15.2455 9.57052C15.4911 9.81614 15.8129 9.93887 16.1347 9.93887C16.4565 9.93887 16.7783 9.81606 17.0238 9.57052L20.3995 6.19469C20.8905 5.70353 20.8905 4.90739 20.3995 4.4164Z" fill="black"/>
</svg>
