<svg width="25" height="22" viewBox="0 0 25 22" fill="none" xmlns="http://www.w3.org/2000/svg">
<path d="M13.0921 9.40679L15.2157 11.5302C15.757 9.99595 16.1393 8.37035 16.2838 6.90073C16.2887 6.85116 16.2613 6.80615 16.2157 6.78878L10.469 4.59287C10.4566 4.58814 10.4436 4.58569 10.4303 4.58569C10.417 4.58569 10.4039 4.58806 10.3915 4.59287L4.64473 6.78878C4.5998 6.80591 4.57184 6.85197 4.57665 6.90073C4.81488 9.32265 5.69609 12.1694 6.87635 14.33C8.03102 16.4435 9.35959 17.7054 10.4303 17.7054C10.9152 17.7054 11.4531 17.4458 12.0037 16.9662L8.76815 13.7307C7.57419 12.5367 7.57419 10.6008 8.76815 9.40679C9.96228 8.21283 11.8982 8.21283 13.0921 9.40679Z" fill="black"/>
<path d="M13.1584 18.1207C12.3129 18.8816 11.3931 19.336 10.4304 19.336C6.60391 19.336 3.45578 12.1631 2.95387 7.0603C2.87722 6.28085 3.33112 5.54502 4.06271 5.26553L9.80961 3.06961C10.0094 2.99321 10.2199 2.95506 10.4304 2.95506C10.6408 2.95506 10.8513 2.99321 11.0511 3.06961L16.7978 5.26544C17.5306 5.54543 17.9835 6.27963 17.9067 7.0603C17.8277 7.86307 17.6831 8.71721 17.4808 9.5865L20.2553 6.81204C20.2905 6.56858 20.3217 6.32716 20.3474 6.08892C20.4565 5.07588 19.8909 4.11217 18.9524 3.71535L11.3294 0.49204C10.7547 0.249073 10.1062 0.249073 9.53158 0.49204L1.90837 3.71527C0.971075 4.1116 0.404342 5.07702 0.513433 6.08884C1.23263 12.7609 5.77196 21.6901 10.4305 21.6901C12.0098 21.6901 13.5753 20.6629 14.983 19.0462C14.3364 18.9627 13.7113 18.6735 13.2146 18.1768L13.1584 18.1207Z" fill="black"/>
<path d="M24.0225 7.36887C23.3857 6.73202 22.3532 6.73202 21.7164 7.36887L15.3766 13.7088L12.0833 10.4156C11.4465 9.77873 10.414 9.77881 9.77725 10.4157C9.1404 11.0525 9.14056 12.085 9.77733 12.7217L14.2235 17.1679C14.5419 17.4862 14.9592 17.6454 15.3766 17.6454C15.7939 17.6454 16.2112 17.4862 16.5297 17.1679L24.0225 9.67502C24.6592 9.03825 24.6592 8.00572 24.0225 7.36887Z" fill="black"/>
</svg>
