<svg width="25" height="24" viewBox="0 0 25 24" fill="none" xmlns="http://www.w3.org/2000/svg">
<g clip-path="url(#clip0_107_2531)">
<path d="M20.158 4.45129L21.2107 3.39966C21.6083 3.00256 21.6086 2.35836 21.2115 1.96086C20.8145 1.56327 20.1704 1.56303 19.7727 1.96004L18.7206 3.01111C14.4312 -0.651495 8.26763 -0.972982 3.6496 2.04762C3.40177 2.20967 3.26056 2.49274 3.28001 2.78818C3.29946 3.08362 3.4764 3.34602 3.74344 3.47405C4.49654 3.83493 5.30628 4.41206 6.05807 5.16393C7.15398 6.25984 7.87851 7.47881 8.10298 8.46574C8.17298 8.77363 8.41372 9.01414 8.72162 9.08421C9.48758 9.25847 10.3931 9.735 11.2725 10.4514L2.70573 19.0091C1.56229 20.1512 1.56131 22.0014 2.70459 23.1447C3.8451 24.2852 5.70045 24.2848 6.84055 23.1447L7.86207 22.1233C8.25941 21.726 8.25941 21.0818 7.86207 20.6845C7.46489 20.2873 6.82077 20.2872 6.42327 20.6845L5.40175 21.7059C5.05405 22.0536 4.49117 22.0538 4.14331 21.7059C3.79578 21.3584 3.79594 20.796 4.14363 20.4486L12.7101 11.8911C13.4214 12.767 13.8946 13.6681 14.068 14.4308C14.138 14.7387 14.3787 14.9792 14.6866 15.0492C15.6736 15.2737 16.8924 15.9982 17.9883 17.0941C18.7401 17.8459 19.3173 18.6557 19.6781 19.4087C19.8061 19.6759 20.0683 19.8534 20.364 19.8729C20.6597 19.8923 20.9423 19.7505 21.1045 19.5025C24.1206 14.8917 23.8048 8.73994 20.158 4.45129Z" fill="#212121"/>
</g>
<defs>
<clipPath id="clip0_107_2531">
<rect width="24" height="24" fill="white" transform="translate(0.5)"/>
</clipPath>
</defs>
</svg>
